<mxfile host="app.diagrams.net" agent="Mozilla/5.0 (Windows NT 10.0; Win64; x64) AppleWebKit/537.36 (KHTML, like Gecko) Chrome/135.0.0.0 Safari/537.36" version="26.2.14">
  <diagram name="Página-1" id="8LJzEEW_DFzcFLOhHvpb">
    <mxGraphModel dx="1026" dy="547" grid="0" gridSize="10" guides="1" tooltips="1" connect="1" arrows="1" fold="1" page="1" pageScale="1" pageWidth="827" pageHeight="1169" math="0" shadow="0">
      <root>
        <mxCell id="0" />
        <mxCell id="1" parent="0" />
        <mxCell id="Ej7bSkqC02G9e9uTa9Z2-1" value="&amp;lt; body&amp;gt;&amp;nbsp;" style="text;html=1;align=center;verticalAlign=middle;whiteSpace=wrap;rounded=0;" vertex="1" parent="1">
          <mxGeometry x="91.33" y="22" width="60" height="30" as="geometry" />
        </mxCell>
        <mxCell id="Ej7bSkqC02G9e9uTa9Z2-2" value="" style="rounded=0;whiteSpace=wrap;html=1;fillColor=#647687;fontColor=#ffffff;strokeColor=#314354;" vertex="1" parent="1">
          <mxGeometry x="93.33" y="54.25" width="781" height="93" as="geometry" />
        </mxCell>
        <mxCell id="Ej7bSkqC02G9e9uTa9Z2-3" value="&amp;lt; header &amp;gt;" style="text;html=1;align=center;verticalAlign=middle;whiteSpace=wrap;rounded=0;" vertex="1" parent="1">
          <mxGeometry x="93.33" y="52" width="69" height="30" as="geometry" />
        </mxCell>
        <mxCell id="Ej7bSkqC02G9e9uTa9Z2-4" value="&amp;lt; / header &amp;gt;" style="text;html=1;align=center;verticalAlign=middle;whiteSpace=wrap;rounded=0;" vertex="1" parent="1">
          <mxGeometry x="802.33" y="116.25" width="69" height="30" as="geometry" />
        </mxCell>
        <mxCell id="Ej7bSkqC02G9e9uTa9Z2-5" value="&amp;lt;h1&amp;gt; Productos Registrados &amp;lt;/h1&amp;gt;" style="text;html=1;align=center;verticalAlign=middle;whiteSpace=wrap;rounded=0;" vertex="1" parent="1">
          <mxGeometry x="362.33" y="82" width="225" height="32" as="geometry" />
        </mxCell>
        <mxCell id="Ej7bSkqC02G9e9uTa9Z2-6" value="&amp;lt; div &amp;gt;" style="text;html=1;align=center;verticalAlign=middle;whiteSpace=wrap;rounded=0;" vertex="1" parent="1">
          <mxGeometry x="80" y="205" width="69" height="30" as="geometry" />
        </mxCell>
        <mxCell id="Ej7bSkqC02G9e9uTa9Z2-8" value="" style="rounded=0;whiteSpace=wrap;html=1;fillColor=#f5f5f5;fontColor=#333333;strokeColor=#666666;" vertex="1" parent="1">
          <mxGeometry x="234.32999999999998" y="246" width="176" height="45" as="geometry" />
        </mxCell>
        <mxCell id="Ej7bSkqC02G9e9uTa9Z2-9" value="&amp;lt;/ button&amp;gt;" style="text;html=1;align=center;verticalAlign=middle;whiteSpace=wrap;rounded=0;fillColor=#f5f5f5;fontColor=#333333;strokeColor=#666666;" vertex="1" parent="1">
          <mxGeometry x="350.33" y="263.5" width="57" height="26.5" as="geometry" />
        </mxCell>
        <mxCell id="Ej7bSkqC02G9e9uTa9Z2-10" value="&amp;lt; button&amp;gt;" style="text;html=1;align=center;verticalAlign=middle;whiteSpace=wrap;rounded=0;fillColor=#f5f5f5;fontColor=#333333;strokeColor=#666666;" vertex="1" parent="1">
          <mxGeometry x="229.32999999999998" y="239" width="69" height="30" as="geometry" />
        </mxCell>
        <mxCell id="Ej7bSkqC02G9e9uTa9Z2-15" value="" style="rounded=0;whiteSpace=wrap;html=1;fillColor=#f5f5f5;fontColor=#333333;strokeColor=#666666;" vertex="1" parent="1">
          <mxGeometry x="540.33" y="247.25" width="176" height="44.75" as="geometry" />
        </mxCell>
        <mxCell id="Ej7bSkqC02G9e9uTa9Z2-16" value="&amp;lt;/ button&amp;gt;" style="text;html=1;align=center;verticalAlign=middle;whiteSpace=wrap;rounded=0;fillColor=#f5f5f5;fontColor=#333333;strokeColor=#666666;" vertex="1" parent="1">
          <mxGeometry x="656.33" y="266.25" width="57" height="26.5" as="geometry" />
        </mxCell>
        <mxCell id="Ej7bSkqC02G9e9uTa9Z2-17" value="&amp;lt; button&amp;gt;" style="text;html=1;align=center;verticalAlign=middle;whiteSpace=wrap;rounded=0;fillColor=#f5f5f5;fontColor=#333333;strokeColor=#666666;" vertex="1" parent="1">
          <mxGeometry x="535.33" y="241.75" width="69" height="30" as="geometry" />
        </mxCell>
        <mxCell id="Ej7bSkqC02G9e9uTa9Z2-42" value="" style="rounded=1;whiteSpace=wrap;html=1;rotation=90;" vertex="1" parent="1">
          <mxGeometry x="-42.83" y="459.6" width="486.55" height="235.38" as="geometry" />
        </mxCell>
        <mxCell id="Ej7bSkqC02G9e9uTa9Z2-22" value="" style="whiteSpace=wrap;html=1;aspect=fixed;" vertex="1" parent="1">
          <mxGeometry x="123" y="347" width="158" height="158" as="geometry" />
        </mxCell>
        <mxCell id="Ej7bSkqC02G9e9uTa9Z2-26" value="&amp;lt; /div &amp;gt;" style="text;html=1;align=center;verticalAlign=middle;whiteSpace=wrap;rounded=0;" vertex="1" parent="1">
          <mxGeometry x="206.5" y="465" width="69" height="30" as="geometry" />
        </mxCell>
        <mxCell id="Ej7bSkqC02G9e9uTa9Z2-27" value="&amp;lt; img &amp;gt;" style="text;html=1;align=center;verticalAlign=middle;whiteSpace=wrap;rounded=0;" vertex="1" parent="1">
          <mxGeometry x="165.5" y="411" width="69" height="30" as="geometry" />
        </mxCell>
        <mxCell id="Ej7bSkqC02G9e9uTa9Z2-29" value="&amp;lt; div &amp;gt;" style="text;html=1;align=center;verticalAlign=middle;whiteSpace=wrap;rounded=0;" vertex="1" parent="1">
          <mxGeometry x="126.5" y="356" width="69" height="30" as="geometry" />
        </mxCell>
        <mxCell id="Ej7bSkqC02G9e9uTa9Z2-44" value="&amp;lt; div &amp;gt;" style="text;html=1;align=center;verticalAlign=middle;whiteSpace=wrap;rounded=0;" vertex="1" parent="1">
          <mxGeometry x="95" y="507" width="69" height="30" as="geometry" />
        </mxCell>
        <mxCell id="Ej7bSkqC02G9e9uTa9Z2-45" value="&amp;lt; /div &amp;gt;" style="text;html=1;align=center;verticalAlign=middle;whiteSpace=wrap;rounded=0;" vertex="1" parent="1">
          <mxGeometry x="238" y="788" width="69" height="30" as="geometry" />
        </mxCell>
        <mxCell id="Ej7bSkqC02G9e9uTa9Z2-46" value="&lt;font&gt;&amp;lt; h3 &amp;gt; producto.nombre &amp;lt;/h3&amp;gt;&lt;/font&gt;" style="text;html=1;align=center;verticalAlign=middle;whiteSpace=wrap;rounded=0;" vertex="1" parent="1">
          <mxGeometry x="113.5" y="533" width="177" height="27" as="geometry" />
        </mxCell>
        <mxCell id="Ej7bSkqC02G9e9uTa9Z2-47" value="" style="rounded=0;whiteSpace=wrap;html=1;" vertex="1" parent="1">
          <mxGeometry x="91" y="572" width="225" height="26" as="geometry" />
        </mxCell>
        <mxCell id="Ej7bSkqC02G9e9uTa9Z2-48" value="Categoría:" style="text;html=1;align=center;verticalAlign=middle;whiteSpace=wrap;rounded=0;" vertex="1" parent="1">
          <mxGeometry x="161" y="570" width="62" height="30" as="geometry" />
        </mxCell>
        <mxCell id="Ej7bSkqC02G9e9uTa9Z2-49" value="&amp;lt; p&amp;gt;" style="text;html=1;align=center;verticalAlign=middle;whiteSpace=wrap;rounded=0;" vertex="1" parent="1">
          <mxGeometry x="84" y="570" width="69" height="30" as="geometry" />
        </mxCell>
        <mxCell id="Ej7bSkqC02G9e9uTa9Z2-50" value="&amp;lt; /pl&amp;gt;" style="text;html=1;align=center;verticalAlign=middle;whiteSpace=wrap;rounded=0;" vertex="1" parent="1">
          <mxGeometry x="231" y="570" width="66" height="30" as="geometry" />
        </mxCell>
        <mxCell id="Ej7bSkqC02G9e9uTa9Z2-51" value="" style="rounded=0;whiteSpace=wrap;html=1;" vertex="1" parent="1">
          <mxGeometry x="91" y="616" width="225" height="26" as="geometry" />
        </mxCell>
        <mxCell id="Ej7bSkqC02G9e9uTa9Z2-52" value="Código:" style="text;html=1;align=center;verticalAlign=middle;whiteSpace=wrap;rounded=0;" vertex="1" parent="1">
          <mxGeometry x="161" y="614" width="62" height="30" as="geometry" />
        </mxCell>
        <mxCell id="Ej7bSkqC02G9e9uTa9Z2-53" value="&amp;lt; p&amp;gt;" style="text;html=1;align=center;verticalAlign=middle;whiteSpace=wrap;rounded=0;" vertex="1" parent="1">
          <mxGeometry x="84" y="614" width="69" height="30" as="geometry" />
        </mxCell>
        <mxCell id="Ej7bSkqC02G9e9uTa9Z2-54" value="&amp;lt; /p&amp;gt;" style="text;html=1;align=center;verticalAlign=middle;whiteSpace=wrap;rounded=0;" vertex="1" parent="1">
          <mxGeometry x="231" y="614" width="66" height="30" as="geometry" />
        </mxCell>
        <mxCell id="Ej7bSkqC02G9e9uTa9Z2-55" value="" style="rounded=0;whiteSpace=wrap;html=1;" vertex="1" parent="1">
          <mxGeometry x="93" y="658" width="225" height="26" as="geometry" />
        </mxCell>
        <mxCell id="Ej7bSkqC02G9e9uTa9Z2-56" value="Precio:" style="text;html=1;align=center;verticalAlign=middle;whiteSpace=wrap;rounded=0;" vertex="1" parent="1">
          <mxGeometry x="163" y="656" width="62" height="30" as="geometry" />
        </mxCell>
        <mxCell id="Ej7bSkqC02G9e9uTa9Z2-57" value="&amp;lt; p&amp;gt;" style="text;html=1;align=center;verticalAlign=middle;whiteSpace=wrap;rounded=0;" vertex="1" parent="1">
          <mxGeometry x="86" y="656" width="69" height="30" as="geometry" />
        </mxCell>
        <mxCell id="Ej7bSkqC02G9e9uTa9Z2-58" value="&amp;lt; /p&amp;gt;" style="text;html=1;align=center;verticalAlign=middle;whiteSpace=wrap;rounded=0;" vertex="1" parent="1">
          <mxGeometry x="233" y="656" width="66" height="30" as="geometry" />
        </mxCell>
        <mxCell id="Ej7bSkqC02G9e9uTa9Z2-59" value="" style="rounded=0;whiteSpace=wrap;html=1;" vertex="1" parent="1">
          <mxGeometry x="91" y="701" width="225" height="26" as="geometry" />
        </mxCell>
        <mxCell id="Ej7bSkqC02G9e9uTa9Z2-60" value="Stock:" style="text;html=1;align=center;verticalAlign=middle;whiteSpace=wrap;rounded=0;" vertex="1" parent="1">
          <mxGeometry x="161" y="699" width="62" height="30" as="geometry" />
        </mxCell>
        <mxCell id="Ej7bSkqC02G9e9uTa9Z2-61" value="&amp;lt;p&amp;gt;" style="text;html=1;align=center;verticalAlign=middle;whiteSpace=wrap;rounded=0;" vertex="1" parent="1">
          <mxGeometry x="84" y="699" width="69" height="30" as="geometry" />
        </mxCell>
        <mxCell id="Ej7bSkqC02G9e9uTa9Z2-62" value="&amp;lt; /p&amp;gt;" style="text;html=1;align=center;verticalAlign=middle;whiteSpace=wrap;rounded=0;" vertex="1" parent="1">
          <mxGeometry x="231" y="699" width="66" height="30" as="geometry" />
        </mxCell>
        <mxCell id="Ej7bSkqC02G9e9uTa9Z2-63" value="" style="rounded=0;whiteSpace=wrap;html=1;" vertex="1" parent="1">
          <mxGeometry x="91" y="747" width="225" height="26" as="geometry" />
        </mxCell>
        <mxCell id="Ej7bSkqC02G9e9uTa9Z2-64" value="descripción:" style="text;html=1;align=center;verticalAlign=middle;whiteSpace=wrap;rounded=0;" vertex="1" parent="1">
          <mxGeometry x="161" y="745" width="62" height="30" as="geometry" />
        </mxCell>
        <mxCell id="Ej7bSkqC02G9e9uTa9Z2-65" value="&amp;lt; p&amp;gt;" style="text;html=1;align=center;verticalAlign=middle;whiteSpace=wrap;rounded=0;" vertex="1" parent="1">
          <mxGeometry x="84" y="745" width="69" height="30" as="geometry" />
        </mxCell>
        <mxCell id="Ej7bSkqC02G9e9uTa9Z2-66" value="&amp;lt; / p&amp;gt;" style="text;html=1;align=center;verticalAlign=middle;whiteSpace=wrap;rounded=0;" vertex="1" parent="1">
          <mxGeometry x="231" y="745" width="66" height="30" as="geometry" />
        </mxCell>
        <mxCell id="VQgtFMcZGJHbPjzUN-t3-1" value="" style="rounded=1;whiteSpace=wrap;html=1;rotation=90;" vertex="1" parent="1">
          <mxGeometry x="238" y="459.6" width="486.55" height="235.38" as="geometry" />
        </mxCell>
        <mxCell id="VQgtFMcZGJHbPjzUN-t3-2" value="" style="whiteSpace=wrap;html=1;aspect=fixed;" vertex="1" parent="1">
          <mxGeometry x="403.83" y="347" width="158" height="158" as="geometry" />
        </mxCell>
        <mxCell id="VQgtFMcZGJHbPjzUN-t3-3" value="&amp;lt; /div &amp;gt;" style="text;html=1;align=center;verticalAlign=middle;whiteSpace=wrap;rounded=0;" vertex="1" parent="1">
          <mxGeometry x="487.33" y="465" width="69" height="30" as="geometry" />
        </mxCell>
        <mxCell id="VQgtFMcZGJHbPjzUN-t3-4" value="&amp;lt; img &amp;gt;" style="text;html=1;align=center;verticalAlign=middle;whiteSpace=wrap;rounded=0;" vertex="1" parent="1">
          <mxGeometry x="446.33" y="411" width="69" height="30" as="geometry" />
        </mxCell>
        <mxCell id="VQgtFMcZGJHbPjzUN-t3-5" value="&amp;lt; div &amp;gt;" style="text;html=1;align=center;verticalAlign=middle;whiteSpace=wrap;rounded=0;" vertex="1" parent="1">
          <mxGeometry x="407.33" y="356" width="69" height="30" as="geometry" />
        </mxCell>
        <mxCell id="VQgtFMcZGJHbPjzUN-t3-6" value="&amp;lt; div &amp;gt;" style="text;html=1;align=center;verticalAlign=middle;whiteSpace=wrap;rounded=0;" vertex="1" parent="1">
          <mxGeometry x="375.83" y="507" width="69" height="30" as="geometry" />
        </mxCell>
        <mxCell id="VQgtFMcZGJHbPjzUN-t3-7" value="&amp;lt; /div &amp;gt;" style="text;html=1;align=center;verticalAlign=middle;whiteSpace=wrap;rounded=0;" vertex="1" parent="1">
          <mxGeometry x="518.8299999999999" y="788" width="69" height="30" as="geometry" />
        </mxCell>
        <mxCell id="VQgtFMcZGJHbPjzUN-t3-8" value="&lt;font&gt;&amp;lt; h3 &amp;gt; producto.nombre &amp;lt;/h3&amp;gt;&lt;/font&gt;" style="text;html=1;align=center;verticalAlign=middle;whiteSpace=wrap;rounded=0;" vertex="1" parent="1">
          <mxGeometry x="394.33" y="533" width="177" height="27" as="geometry" />
        </mxCell>
        <mxCell id="VQgtFMcZGJHbPjzUN-t3-9" value="" style="rounded=0;whiteSpace=wrap;html=1;" vertex="1" parent="1">
          <mxGeometry x="371.83" y="572" width="225" height="26" as="geometry" />
        </mxCell>
        <mxCell id="VQgtFMcZGJHbPjzUN-t3-10" value="Categoría:" style="text;html=1;align=center;verticalAlign=middle;whiteSpace=wrap;rounded=0;" vertex="1" parent="1">
          <mxGeometry x="441.83" y="570" width="62" height="30" as="geometry" />
        </mxCell>
        <mxCell id="VQgtFMcZGJHbPjzUN-t3-11" value="&amp;lt; p&amp;gt;" style="text;html=1;align=center;verticalAlign=middle;whiteSpace=wrap;rounded=0;" vertex="1" parent="1">
          <mxGeometry x="364.83" y="570" width="69" height="30" as="geometry" />
        </mxCell>
        <mxCell id="VQgtFMcZGJHbPjzUN-t3-12" value="&amp;lt; /pl&amp;gt;" style="text;html=1;align=center;verticalAlign=middle;whiteSpace=wrap;rounded=0;" vertex="1" parent="1">
          <mxGeometry x="511.8299999999999" y="570" width="66" height="30" as="geometry" />
        </mxCell>
        <mxCell id="VQgtFMcZGJHbPjzUN-t3-13" value="" style="rounded=0;whiteSpace=wrap;html=1;" vertex="1" parent="1">
          <mxGeometry x="371.83" y="616" width="225" height="26" as="geometry" />
        </mxCell>
        <mxCell id="VQgtFMcZGJHbPjzUN-t3-14" value="Código:" style="text;html=1;align=center;verticalAlign=middle;whiteSpace=wrap;rounded=0;" vertex="1" parent="1">
          <mxGeometry x="441.83" y="614" width="62" height="30" as="geometry" />
        </mxCell>
        <mxCell id="VQgtFMcZGJHbPjzUN-t3-15" value="&amp;lt; p&amp;gt;" style="text;html=1;align=center;verticalAlign=middle;whiteSpace=wrap;rounded=0;" vertex="1" parent="1">
          <mxGeometry x="364.83" y="614" width="69" height="30" as="geometry" />
        </mxCell>
        <mxCell id="VQgtFMcZGJHbPjzUN-t3-16" value="&amp;lt; /p&amp;gt;" style="text;html=1;align=center;verticalAlign=middle;whiteSpace=wrap;rounded=0;" vertex="1" parent="1">
          <mxGeometry x="511.8299999999999" y="614" width="66" height="30" as="geometry" />
        </mxCell>
        <mxCell id="VQgtFMcZGJHbPjzUN-t3-17" value="" style="rounded=0;whiteSpace=wrap;html=1;" vertex="1" parent="1">
          <mxGeometry x="373.83" y="658" width="225" height="26" as="geometry" />
        </mxCell>
        <mxCell id="VQgtFMcZGJHbPjzUN-t3-18" value="Precio:" style="text;html=1;align=center;verticalAlign=middle;whiteSpace=wrap;rounded=0;" vertex="1" parent="1">
          <mxGeometry x="443.83" y="656" width="62" height="30" as="geometry" />
        </mxCell>
        <mxCell id="VQgtFMcZGJHbPjzUN-t3-19" value="&amp;lt; p&amp;gt;" style="text;html=1;align=center;verticalAlign=middle;whiteSpace=wrap;rounded=0;" vertex="1" parent="1">
          <mxGeometry x="366.83" y="656" width="69" height="30" as="geometry" />
        </mxCell>
        <mxCell id="VQgtFMcZGJHbPjzUN-t3-20" value="&amp;lt; /p&amp;gt;" style="text;html=1;align=center;verticalAlign=middle;whiteSpace=wrap;rounded=0;" vertex="1" parent="1">
          <mxGeometry x="513.8299999999999" y="656" width="66" height="30" as="geometry" />
        </mxCell>
        <mxCell id="VQgtFMcZGJHbPjzUN-t3-21" value="" style="rounded=0;whiteSpace=wrap;html=1;" vertex="1" parent="1">
          <mxGeometry x="371.83" y="701" width="225" height="26" as="geometry" />
        </mxCell>
        <mxCell id="VQgtFMcZGJHbPjzUN-t3-22" value="Stock:" style="text;html=1;align=center;verticalAlign=middle;whiteSpace=wrap;rounded=0;" vertex="1" parent="1">
          <mxGeometry x="441.83" y="699" width="62" height="30" as="geometry" />
        </mxCell>
        <mxCell id="VQgtFMcZGJHbPjzUN-t3-23" value="&amp;lt;p&amp;gt;" style="text;html=1;align=center;verticalAlign=middle;whiteSpace=wrap;rounded=0;" vertex="1" parent="1">
          <mxGeometry x="364.83" y="699" width="69" height="30" as="geometry" />
        </mxCell>
        <mxCell id="VQgtFMcZGJHbPjzUN-t3-24" value="&amp;lt; /p&amp;gt;" style="text;html=1;align=center;verticalAlign=middle;whiteSpace=wrap;rounded=0;" vertex="1" parent="1">
          <mxGeometry x="511.8299999999999" y="699" width="66" height="30" as="geometry" />
        </mxCell>
        <mxCell id="VQgtFMcZGJHbPjzUN-t3-25" value="" style="rounded=0;whiteSpace=wrap;html=1;" vertex="1" parent="1">
          <mxGeometry x="371.83" y="747" width="225" height="26" as="geometry" />
        </mxCell>
        <mxCell id="VQgtFMcZGJHbPjzUN-t3-26" value="descripción:" style="text;html=1;align=center;verticalAlign=middle;whiteSpace=wrap;rounded=0;" vertex="1" parent="1">
          <mxGeometry x="441.83" y="745" width="62" height="30" as="geometry" />
        </mxCell>
        <mxCell id="VQgtFMcZGJHbPjzUN-t3-27" value="&amp;lt; p&amp;gt;" style="text;html=1;align=center;verticalAlign=middle;whiteSpace=wrap;rounded=0;" vertex="1" parent="1">
          <mxGeometry x="364.83" y="745" width="69" height="30" as="geometry" />
        </mxCell>
        <mxCell id="VQgtFMcZGJHbPjzUN-t3-28" value="&amp;lt; / p&amp;gt;" style="text;html=1;align=center;verticalAlign=middle;whiteSpace=wrap;rounded=0;" vertex="1" parent="1">
          <mxGeometry x="511.8299999999999" y="745" width="66" height="30" as="geometry" />
        </mxCell>
        <mxCell id="VQgtFMcZGJHbPjzUN-t3-29" value="" style="rounded=1;whiteSpace=wrap;html=1;rotation=90;" vertex="1" parent="1">
          <mxGeometry x="518.8299999999999" y="459.6" width="486.55" height="235.38" as="geometry" />
        </mxCell>
        <mxCell id="VQgtFMcZGJHbPjzUN-t3-30" value="" style="whiteSpace=wrap;html=1;aspect=fixed;" vertex="1" parent="1">
          <mxGeometry x="684.66" y="347" width="158" height="158" as="geometry" />
        </mxCell>
        <mxCell id="VQgtFMcZGJHbPjzUN-t3-31" value="&amp;lt; /div &amp;gt;" style="text;html=1;align=center;verticalAlign=middle;whiteSpace=wrap;rounded=0;" vertex="1" parent="1">
          <mxGeometry x="768.16" y="465" width="69" height="30" as="geometry" />
        </mxCell>
        <mxCell id="VQgtFMcZGJHbPjzUN-t3-32" value="&amp;lt; img &amp;gt;" style="text;html=1;align=center;verticalAlign=middle;whiteSpace=wrap;rounded=0;" vertex="1" parent="1">
          <mxGeometry x="727.16" y="411" width="69" height="30" as="geometry" />
        </mxCell>
        <mxCell id="VQgtFMcZGJHbPjzUN-t3-33" value="&amp;lt; div &amp;gt;" style="text;html=1;align=center;verticalAlign=middle;whiteSpace=wrap;rounded=0;" vertex="1" parent="1">
          <mxGeometry x="688.16" y="356" width="69" height="30" as="geometry" />
        </mxCell>
        <mxCell id="VQgtFMcZGJHbPjzUN-t3-34" value="&amp;lt; div &amp;gt;" style="text;html=1;align=center;verticalAlign=middle;whiteSpace=wrap;rounded=0;" vertex="1" parent="1">
          <mxGeometry x="656.66" y="507" width="69" height="30" as="geometry" />
        </mxCell>
        <mxCell id="VQgtFMcZGJHbPjzUN-t3-35" value="&amp;lt; /div &amp;gt;" style="text;html=1;align=center;verticalAlign=middle;whiteSpace=wrap;rounded=0;" vertex="1" parent="1">
          <mxGeometry x="799.66" y="788" width="69" height="30" as="geometry" />
        </mxCell>
        <mxCell id="VQgtFMcZGJHbPjzUN-t3-36" value="&lt;font&gt;&amp;lt; h3 &amp;gt; producto.nombre &amp;lt;/h3&amp;gt;&lt;/font&gt;" style="text;html=1;align=center;verticalAlign=middle;whiteSpace=wrap;rounded=0;" vertex="1" parent="1">
          <mxGeometry x="675.16" y="533" width="177" height="27" as="geometry" />
        </mxCell>
        <mxCell id="VQgtFMcZGJHbPjzUN-t3-37" value="" style="rounded=0;whiteSpace=wrap;html=1;" vertex="1" parent="1">
          <mxGeometry x="652.66" y="572" width="225" height="26" as="geometry" />
        </mxCell>
        <mxCell id="VQgtFMcZGJHbPjzUN-t3-38" value="Categoría:" style="text;html=1;align=center;verticalAlign=middle;whiteSpace=wrap;rounded=0;" vertex="1" parent="1">
          <mxGeometry x="722.66" y="570" width="62" height="30" as="geometry" />
        </mxCell>
        <mxCell id="VQgtFMcZGJHbPjzUN-t3-39" value="&amp;lt; p&amp;gt;" style="text;html=1;align=center;verticalAlign=middle;whiteSpace=wrap;rounded=0;" vertex="1" parent="1">
          <mxGeometry x="645.66" y="570" width="69" height="30" as="geometry" />
        </mxCell>
        <mxCell id="VQgtFMcZGJHbPjzUN-t3-40" value="&amp;lt; /pl&amp;gt;" style="text;html=1;align=center;verticalAlign=middle;whiteSpace=wrap;rounded=0;" vertex="1" parent="1">
          <mxGeometry x="792.66" y="570" width="66" height="30" as="geometry" />
        </mxCell>
        <mxCell id="VQgtFMcZGJHbPjzUN-t3-41" value="" style="rounded=0;whiteSpace=wrap;html=1;" vertex="1" parent="1">
          <mxGeometry x="652.66" y="616" width="225" height="26" as="geometry" />
        </mxCell>
        <mxCell id="VQgtFMcZGJHbPjzUN-t3-42" value="Código:" style="text;html=1;align=center;verticalAlign=middle;whiteSpace=wrap;rounded=0;" vertex="1" parent="1">
          <mxGeometry x="722.66" y="614" width="62" height="30" as="geometry" />
        </mxCell>
        <mxCell id="VQgtFMcZGJHbPjzUN-t3-43" value="&amp;lt; p&amp;gt;" style="text;html=1;align=center;verticalAlign=middle;whiteSpace=wrap;rounded=0;" vertex="1" parent="1">
          <mxGeometry x="645.66" y="614" width="69" height="30" as="geometry" />
        </mxCell>
        <mxCell id="VQgtFMcZGJHbPjzUN-t3-44" value="&amp;lt; /p&amp;gt;" style="text;html=1;align=center;verticalAlign=middle;whiteSpace=wrap;rounded=0;" vertex="1" parent="1">
          <mxGeometry x="792.66" y="614" width="66" height="30" as="geometry" />
        </mxCell>
        <mxCell id="VQgtFMcZGJHbPjzUN-t3-45" value="" style="rounded=0;whiteSpace=wrap;html=1;" vertex="1" parent="1">
          <mxGeometry x="654.66" y="658" width="225" height="26" as="geometry" />
        </mxCell>
        <mxCell id="VQgtFMcZGJHbPjzUN-t3-46" value="Precio:" style="text;html=1;align=center;verticalAlign=middle;whiteSpace=wrap;rounded=0;" vertex="1" parent="1">
          <mxGeometry x="724.66" y="656" width="62" height="30" as="geometry" />
        </mxCell>
        <mxCell id="VQgtFMcZGJHbPjzUN-t3-47" value="&amp;lt; p&amp;gt;" style="text;html=1;align=center;verticalAlign=middle;whiteSpace=wrap;rounded=0;" vertex="1" parent="1">
          <mxGeometry x="647.66" y="656" width="69" height="30" as="geometry" />
        </mxCell>
        <mxCell id="VQgtFMcZGJHbPjzUN-t3-48" value="&amp;lt; /p&amp;gt;" style="text;html=1;align=center;verticalAlign=middle;whiteSpace=wrap;rounded=0;" vertex="1" parent="1">
          <mxGeometry x="794.66" y="656" width="66" height="30" as="geometry" />
        </mxCell>
        <mxCell id="VQgtFMcZGJHbPjzUN-t3-49" value="" style="rounded=0;whiteSpace=wrap;html=1;" vertex="1" parent="1">
          <mxGeometry x="652.66" y="701" width="225" height="26" as="geometry" />
        </mxCell>
        <mxCell id="VQgtFMcZGJHbPjzUN-t3-50" value="Stock:" style="text;html=1;align=center;verticalAlign=middle;whiteSpace=wrap;rounded=0;" vertex="1" parent="1">
          <mxGeometry x="722.66" y="699" width="62" height="30" as="geometry" />
        </mxCell>
        <mxCell id="VQgtFMcZGJHbPjzUN-t3-51" value="&amp;lt;p&amp;gt;" style="text;html=1;align=center;verticalAlign=middle;whiteSpace=wrap;rounded=0;" vertex="1" parent="1">
          <mxGeometry x="645.66" y="699" width="69" height="30" as="geometry" />
        </mxCell>
        <mxCell id="VQgtFMcZGJHbPjzUN-t3-52" value="&amp;lt; /p&amp;gt;" style="text;html=1;align=center;verticalAlign=middle;whiteSpace=wrap;rounded=0;" vertex="1" parent="1">
          <mxGeometry x="792.66" y="699" width="66" height="30" as="geometry" />
        </mxCell>
        <mxCell id="VQgtFMcZGJHbPjzUN-t3-53" value="" style="rounded=0;whiteSpace=wrap;html=1;" vertex="1" parent="1">
          <mxGeometry x="652.66" y="747" width="225" height="26" as="geometry" />
        </mxCell>
        <mxCell id="VQgtFMcZGJHbPjzUN-t3-54" value="descripción:" style="text;html=1;align=center;verticalAlign=middle;whiteSpace=wrap;rounded=0;" vertex="1" parent="1">
          <mxGeometry x="722.66" y="745" width="62" height="30" as="geometry" />
        </mxCell>
        <mxCell id="VQgtFMcZGJHbPjzUN-t3-55" value="&amp;lt; p&amp;gt;" style="text;html=1;align=center;verticalAlign=middle;whiteSpace=wrap;rounded=0;" vertex="1" parent="1">
          <mxGeometry x="645.66" y="745" width="69" height="30" as="geometry" />
        </mxCell>
        <mxCell id="VQgtFMcZGJHbPjzUN-t3-56" value="&amp;lt; / p&amp;gt;" style="text;html=1;align=center;verticalAlign=middle;whiteSpace=wrap;rounded=0;" vertex="1" parent="1">
          <mxGeometry x="792.66" y="745" width="66" height="30" as="geometry" />
        </mxCell>
        <mxCell id="VQgtFMcZGJHbPjzUN-t3-57" value="" style="rounded=0;whiteSpace=wrap;html=1;fillColor=#f5f5f5;fontColor=#333333;strokeColor=#666666;" vertex="1" parent="1">
          <mxGeometry x="245.32999999999998" y="868.25" width="176" height="45" as="geometry" />
        </mxCell>
        <mxCell id="VQgtFMcZGJHbPjzUN-t3-58" value="&amp;lt;/ button&amp;gt;" style="text;html=1;align=center;verticalAlign=middle;whiteSpace=wrap;rounded=0;fillColor=#f5f5f5;fontColor=#333333;strokeColor=#666666;" vertex="1" parent="1">
          <mxGeometry x="361.33" y="885.75" width="57" height="26.5" as="geometry" />
        </mxCell>
        <mxCell id="VQgtFMcZGJHbPjzUN-t3-59" value="" style="rounded=0;whiteSpace=wrap;html=1;fillColor=#f5f5f5;fontColor=#333333;strokeColor=#666666;" vertex="1" parent="1">
          <mxGeometry x="551.33" y="869.5" width="176" height="44.75" as="geometry" />
        </mxCell>
        <mxCell id="VQgtFMcZGJHbPjzUN-t3-60" value="&amp;lt;/ button&amp;gt;" style="text;html=1;align=center;verticalAlign=middle;whiteSpace=wrap;rounded=0;fillColor=#f5f5f5;fontColor=#333333;strokeColor=#666666;" vertex="1" parent="1">
          <mxGeometry x="667.33" y="888.5" width="57" height="26.5" as="geometry" />
        </mxCell>
        <mxCell id="VQgtFMcZGJHbPjzUN-t3-61" value="&amp;lt; button&amp;gt;" style="text;html=1;align=center;verticalAlign=middle;whiteSpace=wrap;rounded=0;fillColor=#f5f5f5;fontColor=#333333;strokeColor=#666666;" vertex="1" parent="1">
          <mxGeometry x="546.33" y="864" width="69" height="30" as="geometry" />
        </mxCell>
        <mxCell id="VQgtFMcZGJHbPjzUN-t3-62" value="&amp;lt; button&amp;gt;" style="text;html=1;align=center;verticalAlign=middle;whiteSpace=wrap;rounded=0;fillColor=#f5f5f5;fontColor=#333333;strokeColor=#666666;" vertex="1" parent="1">
          <mxGeometry x="239.99999999999997" y="864" width="69" height="30" as="geometry" />
        </mxCell>
        <mxCell id="VQgtFMcZGJHbPjzUN-t3-63" value="&amp;lt; /div &amp;gt;" style="text;html=1;align=center;verticalAlign=middle;whiteSpace=wrap;rounded=0;" vertex="1" parent="1">
          <mxGeometry x="794.66" y="839.5" width="69" height="30" as="geometry" />
        </mxCell>
      </root>
    </mxGraphModel>
  </diagram>
</mxfile>
